<?xml version="1.0" encoding="utf-8"?>
<!-- Generator: Adobe Illustrator 16.0.0, SVG Export Plug-In . SVG Version: 6.00 Build 0)  -->
<!DOCTYPE svg PUBLIC "-//W3C//DTD SVG 1.1//EN" "http://www.w3.org/Graphics/SVG/1.1/DTD/svg11.dtd">
<svg version="1.1" id="Layer_1" xmlns="http://www.w3.org/2000/svg" xmlns:xlink="http://www.w3.org/1999/xlink" x="0px" y="0px"
	 width="197.545px" height="208.091px" viewBox="0 0 197.545 208.091" enable-background="new 0 0 197.545 208.091"
	 xml:space="preserve">
<g>
	<g>
		<defs>
			<rect id="SVGID_1_" x="-409.909" y="-1628.727" width="1024" height="2655"/>
		</defs>
		<clipPath id="SVGID_2_">
			<use xlink:href="#SVGID_1_"  overflow="visible"/>
		</clipPath>
		<g clip-path="url(#SVGID_2_)">
			<defs>
				<path id="SVGID_3_" d="M123.72,31.134c1.082-3.2,1.838-6.55,4.396-9.594c2.88,4.838,6.953,8.225,10.209,12.312
					c0.521,0.653,1.546,1.16,1.074,2.173c-0.373,0.803-1.371,0.727-2.074,0.64c-3.475-0.436-6.943,0.603-10.427-0.184
					C123.335,35.675,122.569,34.548,123.72,31.134z M65.822,84.241c0.229-0.86,0.551-1.699,1.459-0.884
					c1.056,0.954,2.266,1.57,3.533,2.068h74.306c-3.545-6.116-6.225-12.648-8.219-19.526c-0.929-3.202-1.361-6.441-1.699-9.729
					c-0.215-2.064,0.404-3.127,2.411-3.935c5.294-2.129,10.748-3.904,15.679-6.87c4.723-2.837,5.777-6.38,2.562-10.317
					c-4.363-5.347-8.734-10.729-15.156-13.916c-4.605-2.286-9.115-4.693-9.535-10.925c-0.174-2.546-3.73-1.82-4.943-3.684
					c-1.569,1.133-3.266,2.239-3.924,4.143c-0.788,2.295-1.209,4.686-0.393,7.114c0.689,2.048,1.051,4.389-0.053,6.116
					c-3.778,5.949-7.92,11.659-12.824,16.767c-0.707,0.739-1.459,0.828-2.36,0.3c-0.821-0.48-0.799-1.011-0.649-1.902
					c0.475-2.872-0.359-5.709-0.799-8.5c-0.778-4.961-4.849-8.955-9.348-9.456c-6.455-0.721-11.83,2.195-16.501,6.12
					c-3.119,2.619-2.76,5.15,0.271,8.064c0.654,0.629,0.602,1.335,0.889,2.008c1.551,3.613,0.988,7.717,3.437,11.264
					c3.008,4.353,3.612,5.273,7.545,4.303c-1.999,3.943-3.238,7.943-8.128,8.599c-0.773,0.104-1.433,1.271-2.077,2.008
					c-2.155,2.457-4.682,4.079-8.054,2.99c-4.258-1.378-8.386-3.178-12.999-3.119c-1.452,0.02-2.199-1.315-3.165-2.199
					c-1.345-1.228-2.651-1.754-4.327-0.272c-1.359,1.204-3.01,2.782-4.593,2.859c-2.251,0.103-2.242,1.28-2.323,2.66
					c-0.132,2.279-0.879,4.169-2.354,5.99c-1.385,1.708-1.853,3.823-1.404,6.218c0.475,2.548,1.736,4.667,2.916,6.829H65.44
					C65.581,85.045,65.712,84.655,65.822,84.241z"/>
			</defs>
			<clipPath id="SVGID_4_">
				<use xlink:href="#SVGID_3_"  overflow="visible"/>
			</clipPath>
			<rect x="36.923" y="1.523" clip-path="url(#SVGID_4_)" fill="#4B4B4B" width="125.78" height="88.902"/>
		</g>
	</g>
	<g>
		<defs>
			<rect id="SVGID_5_" x="-409.909" y="-1628.727" width="1024" height="2655"/>
		</defs>
		<clipPath id="SVGID_6_">
			<use xlink:href="#SVGID_5_"  overflow="visible"/>
		</clipPath>
		<g clip-path="url(#SVGID_6_)">
			<defs>
				<path id="SVGID_7_" d="M55.959,92.079c4.457-0.328,7.909-2.409,9.481-6.653H45.003c0.065,0.12,0.13,0.239,0.195,0.358
					C47.482,90.023,51.144,92.435,55.959,92.079"/>
			</defs>
			<clipPath id="SVGID_8_">
				<use xlink:href="#SVGID_7_"  overflow="visible"/>
			</clipPath>
			<rect x="40.003" y="80.425" clip-path="url(#SVGID_8_)" fill="#58BE8B" width="30.437" height="16.688"/>
		</g>
	</g>
	<g>
		<defs>
			<rect id="SVGID_9_" x="-409.909" y="-1628.727" width="1024" height="2655"/>
		</defs>
		<clipPath id="SVGID_10_">
			<use xlink:href="#SVGID_9_"  overflow="visible"/>
		</clipPath>
		<g clip-path="url(#SVGID_10_)">
			<defs>
				<path id="SVGID_11_" d="M141.345,146.59c-0.977-0.221-0.918-1.031-0.721-1.733c0.932-3.284,1.178-6.667,1.546-10.035
					c0.174-1.668,1.091-1.965,5.434-2.034L141.345,146.59z M78.565,88.833c1.974,1.606,3.173,2.74,2.469,5.261
					c-1.372,4.929-0.205,8.76,5.898,11.961c0.49,0.255,1.303,0.484,0.873,1.021c-1.889,2.353-0.418,5.975-2.689,7.887
					c-2.614,2.197-3.508,5.404-5.211,8.042c-3.209,4.973-7.027,9.22-11.186,13.319c-5.246,5.172-11.69,8.579-17.669,12.688
					c-8.294,5.699-15.624,12.492-22.016,20.301c-0.887,1.085-2.077,2.566-3.226,2.667c-3.941,0.333-6.341,3.325-9.536,4.881
					c-1.088,0.53-2.159,1.3-3.301,1.451c-2.753,0.354-4.322,1.817-5.125,4.389c-0.466,1.484-1.975,2.897-0.088,4.407
					c1.806,1.436,3.672,3.351,6.15,2.104c5.248-2.63,10.527-5.266,15.002-9.193c4.353-3.82,7.615-8.9,13.118-11.377
					c4.562-2.057,8.561-4.953,12.368-8.145c2.025-1.695,4.034-3.387,6.401-4.636c1.418-0.746,2.567-0.68,4.008-0.018
					c9.554,4.389,19.678,6.86,30.015,8.465c1.796,0.277,2.528,0.8,2.368,2.651c-0.238,2.753-0.013,5.48,0.54,8.213
					c0.75,3.733-0.47,6.338-3.689,8.338c-1.308,0.81-2.708,1.477-4.006,2.302c-0.902,0.579-2.215,1.175-1.942,2.41
					c0.324,1.484,1.874,1.144,3.015,1.292c6.972,0.905,13.778-0.564,20.621-1.451c1.418-0.182,2.577-0.9,2.741-2.415
					c0.269-2.492,0.734-4.963,0.027-7.521c-0.686-2.472-1.65-5.202-1.203-7.568c0.587-3.04,2.202-5.968,4.066-8.593
					c1.259-1.779,7.768-3.543,8.887-2.267c2.733,3.128,6.562,4.32,10.003,6.229c1.075,0.598,2.572,0.692,3.118,2.18
					c-1.371,0.931-3.404,1.177-3.85,2.942c-0.947,3.774-2.186,7.399-4.459,10.704c1.551-1.019,2.707-2.27,3.857-3.531
					c1.479-1.63,2.295-0.945,2.455,0.839c0.153,1.74,0.086,3.52-0.039,5.268c-0.399,5.522,4.311,9.681,9.622,8.494
					c1.405-0.312,1.815-0.869,0.655-1.897c-2.631-2.34-1.791-4.92-0.506-7.452c1.203-2.377,2.271-4.799,2.718-7.414
					c0.456-2.663,1.28-3.374,3.978-1.936c4.214,2.24,8.318,4.737,13.623,4.189c2.018-0.208,2.562,3.63,4.879,4.463
					c-0.264,0.715-0.349,1.604-0.836,2.102c-0.746,0.76-1.729,1.323-2.691,1.836c-1.352,0.718-3.898,0.497-3.461,2.687
					c0.343,1.685,2.668,1.095,4.049,1.174c8.005,0.465,8.889,1.148,11.229-6.116c0.711-2.199,2.031-4.409,5.37-4.901
					c3.878-0.559,5.835-7.171,3.176-9.635c-1.993-1.855-4.161-3.701-6.982-4.209c-9.538-1.733-16.912-8.204-25.657-11.673
					c-1.197-0.479-1.52-1.264-0.992-2.625c1.751-4.509,3.12-9.175,5.031-13.611c5.207-12.088,4.357-14.404-7.604-19.564
					c-1.184-0.504-3.385-0.414-3.131-2.261c0.269-1.941,0.532-4.194,2.648-5.389c0.958-0.536,1.846-1.192,2.766-1.799
					c0.945-0.621,1.252-1.312,0.739-2.494c-2.058-4.73-3.292-9.833-6.404-14.084c-1.61-2.199-3.079-4.465-4.427-6.789H70.814
					C73.416,86.448,76.266,86.966,78.565,88.833z"/>
			</defs>
			<clipPath id="SVGID_12_">
				<use xlink:href="#SVGID_11_"  overflow="visible"/>
			</clipPath>
			<rect x="1.833" y="80.425" clip-path="url(#SVGID_12_)" fill="#58BE8B" width="193.523" height="117.603"/>
		</g>
	</g>
</g>
</svg>
