<?xml version="1.0" encoding="utf-8"?>
<!-- Generator: Adobe Illustrator 16.0.0, SVG Export Plug-In . SVG Version: 6.00 Build 0)  -->
<!DOCTYPE svg PUBLIC "-//W3C//DTD SVG 1.1//EN" "http://www.w3.org/Graphics/SVG/1.1/DTD/svg11.dtd">
<svg version="1.1" id="Layer_1" xmlns="http://www.w3.org/2000/svg" xmlns:xlink="http://www.w3.org/1999/xlink" x="0px" y="0px"
	 width="186.182px" height="208.091px" viewBox="0 0 186.182 208.091" enable-background="new 0 0 186.182 208.091"
	 xml:space="preserve">
<g>
	<g>
		<defs>
			<rect id="SVGID_1_" x="-65.89" y="-1628.379" width="1024" height="2655"/>
		</defs>
		<clipPath id="SVGID_2_">
			<use xlink:href="#SVGID_1_"  overflow="visible"/>
		</clipPath>
		<g clip-path="url(#SVGID_2_)">
			<defs>
				<path id="SVGID_3_" d="M156.777,159.85c-1.898-3.019-5.876-3.921-8.891-2.022c-13.168,8.312-28.4,12.704-44.044,12.704
					c-45.661,0-82.81-37.24-82.81-83.01c0-28.068,13.995-54.029,37.439-69.449c2.974-1.956,3.806-5.961,1.849-8.941
					c-1.956-2.984-5.942-3.814-8.921-1.857C24.313,25.087,8.146,55.089,8.146,87.523c0,42.774,28.086,79.1,66.744,91.429
					c-10.935,3.123-18.81,8.227-21.084,14.201h92.088c-1.997-5.244-8.334-9.823-17.254-12.979
					c9.188-2.465,17.992-6.284,26.118-11.411C157.763,166.854,158.666,162.874,156.777,159.85"/>
			</defs>
			<clipPath id="SVGID_4_">
				<use xlink:href="#SVGID_3_"  overflow="visible"/>
			</clipPath>
			<rect x="3.146" y="1.214" clip-path="url(#SVGID_4_)" fill="#4B4B4B" width="159.618" height="196.939"/>
		</g>
	</g>
	<g>
		<defs>
			<rect id="SVGID_5_" x="-65.89" y="-1628.379" width="1024" height="2655"/>
		</defs>
		<clipPath id="SVGID_6_">
			<use xlink:href="#SVGID_5_"  overflow="visible"/>
		</clipPath>
		<g clip-path="url(#SVGID_6_)">
			<defs>
				<path id="SVGID_7_" d="M59.396,115.642c4.868,0.898,9.347,2.927,13.141,5.816c-0.132,0.438-6.344,5.265-6.344,5.265
					c-0.452,0.333-1.278,0.604-1.836,0.604h-0.438c-0.559,0-1.016-0.458-1.016-1.02v-3.314c0-0.561-0.457-1.02-1.018-1.02h-1.473
					c-0.559,0-1.017-0.459-1.017-1.019V115.642z M111.188,160.602c28.532-3.724,51.057-23.478,59.753-49.045h-38.369
					c-0.144,1.016-0.453,2.165-0.809,2.918l-5.335,11.281c-0.494,1.04-1.584,2.531-2.422,3.322l-17.371,16.256
					c-0.835,0.786-0.585,1.432,0.562,1.432h1.991c1.146,0,2.085,0.823,2.085,1.834s-0.939,1.836-2.085,1.836h-8.539
					c-1.148,0-2.087-0.944-2.087-2.098v-22.265c0-1.157,0.939-2.093,2.087-2.093h2.373c1.15,0,2.09-0.943,2.09-2.093v-2.377
					c0-1.153-0.94-2.097-2.09-2.097h-2.373c-1.148,0-2.087-0.939-2.087-2.09v-3.768H32.566
					C43.518,143.947,76.06,165.188,111.188,160.602z"/>
			</defs>
			<clipPath id="SVGID_8_">
				<use xlink:href="#SVGID_7_"  overflow="visible"/>
			</clipPath>
			<rect x="27.566" y="106.557" clip-path="url(#SVGID_8_)" fill="#58BE8B" width="148.375" height="59.666"/>
		</g>
	</g>
	<g>
		<defs>
			<rect id="SVGID_9_" x="-65.89" y="-1628.379" width="1024" height="2655"/>
		</defs>
		<clipPath id="SVGID_10_">
			<use xlink:href="#SVGID_9_"  overflow="visible"/>
		</clipPath>
		<g clip-path="url(#SVGID_10_)">
			<defs>
				<path id="SVGID_11_" d="M60.413,121.974h1.473c0.562,0,1.018,0.459,1.018,1.02v3.314c0,0.562,0.457,1.02,1.016,1.02h0.438
					c0.558,0,1.384-0.271,1.836-0.604c0,0,6.212-4.827,6.344-5.265c-3.794-2.89-8.273-4.918-13.141-5.816v5.313
					C59.396,121.515,59.854,121.974,60.413,121.974"/>
			</defs>
			<clipPath id="SVGID_12_">
				<use xlink:href="#SVGID_11_"  overflow="visible"/>
			</clipPath>
			<rect x="54.396" y="110.642" clip-path="url(#SVGID_12_)" fill="#4B4B4B" width="23.141" height="21.686"/>
		</g>
	</g>
	<g>
		<defs>
			<rect id="SVGID_13_" x="-65.89" y="-1628.379" width="1024" height="2655"/>
		</defs>
		<clipPath id="SVGID_14_">
			<use xlink:href="#SVGID_13_"  overflow="visible"/>
		</clipPath>
		<g clip-path="url(#SVGID_14_)">
			<defs>
				<path id="SVGID_15_" d="M98.562,115.324c0,1.15,0.939,2.09,2.087,2.09h2.373c1.15,0,2.09,0.943,2.09,2.097v2.377
					c0,1.149-0.94,2.093-2.09,2.093h-2.373c-1.148,0-2.087,0.936-2.087,2.093v22.265c0,1.153,0.939,2.098,2.087,2.098h8.539
					c1.146,0,2.085-0.825,2.085-1.836s-0.939-1.834-2.085-1.834h-1.991c-1.146,0-1.397-0.646-0.562-1.432l17.371-16.256
					c0.838-0.791,1.928-2.282,2.422-3.322l5.335-11.281c0.356-0.753,0.665-1.902,0.809-2.918h-34.01V115.324"/>
			</defs>
			<clipPath id="SVGID_16_">
				<use xlink:href="#SVGID_15_"  overflow="visible"/>
			</clipPath>
			<rect x="93.562" y="106.557" clip-path="url(#SVGID_16_)" fill="#4B4B4B" width="44.01" height="48.879"/>
		</g>
	</g>
	<g>
		<defs>
			<rect id="SVGID_17_" x="-65.89" y="-1628.379" width="1024" height="2655"/>
		</defs>
		<clipPath id="SVGID_18_">
			<use xlink:href="#SVGID_17_"  overflow="visible"/>
		</clipPath>
		<g clip-path="url(#SVGID_18_)">
			<defs>
				<path id="SVGID_19_" d="M98.562,102.278c0-1.148-0.939-2.09-2.09-2.09h-3.531c-1.146,0-2.857-0.545-3.792-1.212l-11.233-7.966
					c-0.936-0.662-2.185-2.019-2.766-3.013l-5.257-8.945c-0.582-0.991-1.999-1.804-3.147-1.804h-2.512
					c-1.148,0-2.496-0.85-2.994-1.885l-6.09-12.644c-0.491-1.034-0.905-2.823-0.905-3.979v-7.207c0-1.152-0.897-1.819-1.995-1.481
					l-2.449,0.756c10.6-14.853,27.366-24.974,46.528-26.6v8.694c0,1.147,0.768,2.632,1.707,3.292l3.909,2.758
					c0.939,0.659,2.646,1.203,3.796,1.203h3.093c1.151,0,2.09,0.76,2.09,1.689c0,0.928-0.649,2.369-1.439,3.209l-4.457,4.71
					c-0.797,0.833-0.501,1.519,0.649,1.521l2.975,0.008c1.146,0.001,2.085,0.943,2.085,2.097l-0.01,7.52
					c-0.004,1.148,0.937,2.091,2.085,2.091h3.358c1.146,0,2.087,0.715,2.087,1.591c0,0.873-0.941,1.587-2.087,1.587h-10.297
					c-1.143,0-2.833,0.572-3.742,1.27l-4.219,3.225c-0.909,0.697-1.662,2.21-1.662,3.362l0.005,12.504
					c0,1.151-0.939,2.094-2.085,2.094h-0.585c-1.146,0-2.085-0.942-2.085-2.094v-7.199c0-1.15-0.937-2.093-2.087-2.093h-5.633
					c-1.141,0-2.085,0.942-2.095,2.093l-0.029,5.811c-0.005,1.15,0.728,2.68,1.623,3.404l8.31,6.683
					c0.895,0.723,2.567,1.312,3.712,1.313l13.881,0.008c1.146,0.002,2.92,0.439,3.939,0.972l17.682,9.266
					c1.018,0.531,1.849,1.909,1.849,3.063v0.633h0.005c0,0.316-0.032,0.682-0.086,1.065h38.369
					c3.501-10.295,4.765-21.531,3.269-33.045c-5.211-40.112-41.873-68.398-81.893-63.175c-40.019,5.227-68.231,41.981-63.021,82.091
					c0.637,4.899,1.746,9.621,3.27,14.129h65.996V102.278"/>
			</defs>
			<clipPath id="SVGID_20_">
				<use xlink:href="#SVGID_19_"  overflow="visible"/>
			</clipPath>
			<rect x="23.677" y="9.716" clip-path="url(#SVGID_20_)" fill="#4B4B4B" width="156.152" height="106.841"/>
		</g>
	</g>
</g>
</svg>
