<?xml version="1.0" encoding="utf-8"?>
<!-- Generator: Adobe Illustrator 16.0.0, SVG Export Plug-In . SVG Version: 6.00 Build 0)  -->
<!DOCTYPE svg PUBLIC "-//W3C//DTD SVG 1.1//EN" "http://www.w3.org/Graphics/SVG/1.1/DTD/svg11.dtd">
<svg version="1.1" id="Layer_1" xmlns="http://www.w3.org/2000/svg" xmlns:xlink="http://www.w3.org/1999/xlink" x="0px" y="0px"
	 width="158.909px" height="194.455px" viewBox="0 0 158.909 194.455" enable-background="new 0 0 158.909 194.455"
	 xml:space="preserve">
<g>
	<g>
		<defs>
			<rect id="SVGID_1_" x="-778.182" y="-1630.287" width="1024" height="2655"/>
		</defs>
		<clipPath id="SVGID_2_">
			<use xlink:href="#SVGID_1_"  overflow="visible"/>
		</clipPath>
		<g clip-path="url(#SVGID_2_)">
			<defs>
				<rect id="SVGID_3_" x="38.276" y="41.958" width="79.876" height="4.967"/>
			</defs>
			<clipPath id="SVGID_4_">
				<use xlink:href="#SVGID_3_"  overflow="visible"/>
			</clipPath>
			<rect x="33.276" y="36.958" clip-path="url(#SVGID_4_)" fill="#4B4B4B" width="89.876" height="14.967"/>
		</g>
	</g>
	<g>
		<defs>
			<rect id="SVGID_5_" x="-778.182" y="-1630.287" width="1024" height="2655"/>
		</defs>
		<clipPath id="SVGID_6_">
			<use xlink:href="#SVGID_5_"  overflow="visible"/>
		</clipPath>
		<g clip-path="url(#SVGID_6_)">
			<defs>
				<rect id="SVGID_7_" x="38.276" y="55.86" width="79.876" height="4.968"/>
			</defs>
			<clipPath id="SVGID_8_">
				<use xlink:href="#SVGID_7_"  overflow="visible"/>
			</clipPath>
			<rect x="33.276" y="50.86" clip-path="url(#SVGID_8_)" fill="#4B4B4B" width="89.876" height="14.968"/>
		</g>
	</g>
	<g>
		<defs>
			<rect id="SVGID_9_" x="-778.182" y="-1630.287" width="1024" height="2655"/>
		</defs>
		<clipPath id="SVGID_10_">
			<use xlink:href="#SVGID_9_"  overflow="visible"/>
		</clipPath>
		<g clip-path="url(#SVGID_10_)">
			<defs>
				<rect id="SVGID_11_" x="38.276" y="69.76" width="50.107" height="4.967"/>
			</defs>
			<clipPath id="SVGID_12_">
				<use xlink:href="#SVGID_11_"  overflow="visible"/>
			</clipPath>
			<rect x="33.276" y="64.76" clip-path="url(#SVGID_12_)" fill="#4B4B4B" width="60.107" height="14.967"/>
		</g>
	</g>
	<g>
		<defs>
			<rect id="SVGID_13_" x="-778.182" y="-1630.287" width="1024" height="2655"/>
		</defs>
		<clipPath id="SVGID_14_">
			<use xlink:href="#SVGID_13_"  overflow="visible"/>
		</clipPath>
		<g clip-path="url(#SVGID_14_)">
			<defs>
				<path id="SVGID_15_" d="M130.553,77.291v78.862H28.851V27.561h101.702V77.291z M79.949,175.017
					c-2.739,0-4.962-2.222-4.962-4.963c0-2.743,2.223-4.965,4.962-4.965s4.959,2.222,4.959,4.965
					C84.908,172.795,82.688,175.017,79.949,175.017z M137.993,11.178H21.41c-4.65,0-8.932,3.554-8.932,8.537v155.703
					c0,4.984,4.278,9.532,8.932,9.532h116.583c4.651,0,7.938-4.548,7.938-9.532V19.715
					C145.932,14.732,142.645,11.178,137.993,11.178z"/>
			</defs>
			<clipPath id="SVGID_16_">
				<use xlink:href="#SVGID_15_"  overflow="visible"/>
			</clipPath>
			<rect x="7.479" y="6.178" clip-path="url(#SVGID_16_)" fill="#4B4B4B" width="143.453" height="183.772"/>
		</g>
	</g>
	<g>
		<defs>
			<rect id="SVGID_17_" x="-778.182" y="-1630.287" width="1024" height="2655"/>
		</defs>
		<clipPath id="SVGID_18_">
			<use xlink:href="#SVGID_17_"  overflow="visible"/>
		</clipPath>
		<g clip-path="url(#SVGID_18_)">
			<defs>
				<path id="SVGID_19_" d="M38.276,139.273H92.85v4.964H38.276V139.273z M38.276,125.368h79.876v4.966H38.276V125.368z
					 M38.276,111.47h74.913v4.964H38.276V111.47z M38.276,97.565h79.876v4.965H38.276V97.565z M38.276,83.666h72.931v4.964H38.276
					V83.666z M28.851,156.153h101.702V77.291H28.851V156.153z"/>
			</defs>
			<clipPath id="SVGID_20_">
				<use xlink:href="#SVGID_19_"  overflow="visible"/>
			</clipPath>
			<rect x="23.851" y="72.291" clip-path="url(#SVGID_20_)" fill="#58BE8B" width="111.702" height="88.862"/>
		</g>
	</g>
	<g>
		<defs>
			<rect id="SVGID_21_" x="-778.182" y="-1630.287" width="1024" height="2655"/>
		</defs>
		<clipPath id="SVGID_22_">
			<use xlink:href="#SVGID_21_"  overflow="visible"/>
		</clipPath>
		<g clip-path="url(#SVGID_22_)">
			<defs>
				<rect id="SVGID_23_" x="38.276" y="83.666" width="72.931" height="4.964"/>
			</defs>
			<clipPath id="SVGID_24_">
				<use xlink:href="#SVGID_23_"  overflow="visible"/>
			</clipPath>
			<rect x="33.276" y="78.666" clip-path="url(#SVGID_24_)" fill="#FFFFFF" width="82.931" height="14.964"/>
		</g>
	</g>
	<g>
		<defs>
			<rect id="SVGID_25_" x="-778.182" y="-1630.287" width="1024" height="2655"/>
		</defs>
		<clipPath id="SVGID_26_">
			<use xlink:href="#SVGID_25_"  overflow="visible"/>
		</clipPath>
		<g clip-path="url(#SVGID_26_)">
			<defs>
				<rect id="SVGID_27_" x="38.276" y="97.565" width="79.876" height="4.965"/>
			</defs>
			<clipPath id="SVGID_28_">
				<use xlink:href="#SVGID_27_"  overflow="visible"/>
			</clipPath>
			<rect x="33.276" y="92.565" clip-path="url(#SVGID_28_)" fill="#FFFFFF" width="89.876" height="14.965"/>
		</g>
	</g>
	<g>
		<defs>
			<rect id="SVGID_29_" x="-778.182" y="-1630.287" width="1024" height="2655"/>
		</defs>
		<clipPath id="SVGID_30_">
			<use xlink:href="#SVGID_29_"  overflow="visible"/>
		</clipPath>
		<g clip-path="url(#SVGID_30_)">
			<defs>
				<rect id="SVGID_31_" x="38.276" y="111.47" width="74.913" height="4.964"/>
			</defs>
			<clipPath id="SVGID_32_">
				<use xlink:href="#SVGID_31_"  overflow="visible"/>
			</clipPath>
			<rect x="33.276" y="106.47" clip-path="url(#SVGID_32_)" fill="#FFFFFF" width="84.913" height="14.964"/>
		</g>
	</g>
	<g>
		<defs>
			<rect id="SVGID_33_" x="-778.182" y="-1630.287" width="1024" height="2655"/>
		</defs>
		<clipPath id="SVGID_34_">
			<use xlink:href="#SVGID_33_"  overflow="visible"/>
		</clipPath>
		<g clip-path="url(#SVGID_34_)">
			<defs>
				<rect id="SVGID_35_" x="38.276" y="125.368" width="79.876" height="4.966"/>
			</defs>
			<clipPath id="SVGID_36_">
				<use xlink:href="#SVGID_35_"  overflow="visible"/>
			</clipPath>
			<rect x="33.276" y="120.368" clip-path="url(#SVGID_36_)" fill="#FFFFFF" width="89.876" height="14.966"/>
		</g>
	</g>
	<g>
		<defs>
			<rect id="SVGID_37_" x="-778.182" y="-1630.287" width="1024" height="2655"/>
		</defs>
		<clipPath id="SVGID_38_">
			<use xlink:href="#SVGID_37_"  overflow="visible"/>
		</clipPath>
		<g clip-path="url(#SVGID_38_)">
			<defs>
				<rect id="SVGID_39_" x="38.276" y="139.273" width="54.573" height="4.964"/>
			</defs>
			<clipPath id="SVGID_40_">
				<use xlink:href="#SVGID_39_"  overflow="visible"/>
			</clipPath>
			<rect x="33.276" y="134.273" clip-path="url(#SVGID_40_)" fill="#FFFFFF" width="64.573" height="14.964"/>
		</g>
	</g>
</g>
</svg>
